<svg width="32" height="32" viewBox="0 0 32 32" fill="none" xmlns="http://www.w3.org/2000/svg">
<g filter="url(#filter0_d_0_2976)">
<path fill-rule="evenodd" clip-rule="evenodd" d="M27.3304 23.3304C28.2232 22.4376 28.2232 20.9911 27.3304 20.0983L22.6139 15.3817C22.279 15.0469 22.192 14.4375 22.4174 14.0223C22.4174 14.0223 22.4018 14.0848 22.567 13.721C23.1206 12.5 23.4286 11.1429 23.4286 9.7143C23.4286 4.34823 19.0804 0 13.7143 0C8.34823 0 4 4.34823 4 9.7143C4 15.0804 8.34823 19.4286 13.7143 19.4286C15.1384 19.4286 16.4911 19.1228 17.7098 18.5715C18.0781 18.4063 18.0201 18.4197 18.0201 18.4197C18.442 18.1942 19.0469 18.279 19.3817 18.6139L24.0982 23.3304C24.991 24.2232 26.4375 24.2232 27.3304 23.3304ZM19.1429 9.71431C19.1429 12.7121 16.7121 15.1429 13.7143 15.1429C10.7166 15.1429 8.28576 12.7121 8.28576 9.71431C8.28576 6.71653 10.7166 4.28573 13.7143 4.28573C16.7121 4.28573 19.1429 6.71653 19.1429 9.71431Z" fill="white"/>
</g>
<defs>
<filter id="filter0_d_0_2976" x="0" y="0" width="32" height="32" filterUnits="userSpaceOnUse" color-interpolation-filters="sRGB">
<feFlood flood-opacity="0" result="BackgroundImageFix"/>
<feColorMatrix in="SourceAlpha" type="matrix" values="0 0 0 0 0 0 0 0 0 0 0 0 0 0 0 0 0 0 127 0" result="hardAlpha"/>
<feOffset dy="4"/>
<feGaussianBlur stdDeviation="2"/>
<feComposite in2="hardAlpha" operator="out"/>
<feColorMatrix type="matrix" values="0 0 0 0 0 0 0 0 0 0 0 0 0 0 0 0 0 0 0.25 0"/>
<feBlend mode="normal" in2="BackgroundImageFix" result="effect1_dropShadow_0_2976"/>
<feBlend mode="normal" in="SourceGraphic" in2="effect1_dropShadow_0_2976" result="shape"/>
</filter>
</defs>
</svg>
